<?xml version="1.0" encoding="UTF-8" standalone="no"?>
<!-- Created with Inkscape (http://www.inkscape.org/) -->

<svg
   xmlns:dc="http://purl.org/dc/elements/1.1/"
   xmlns:cc="http://creativecommons.org/ns#"
   xmlns:rdf="http://www.w3.org/1999/02/22-rdf-syntax-ns#"
   xmlns:svg="http://www.w3.org/2000/svg"
   xmlns="http://www.w3.org/2000/svg"
   xmlns:sodipodi="http://sodipodi.sourceforge.net/DTD/sodipodi-0.dtd"
   xmlns:inkscape="http://www.inkscape.org/namespaces/inkscape"
   width="531.49603"
   height="318.89764"
   id="svg2"
   version="1.1"
   inkscape:version="0.48.3.1 r9886"
   sodipodi:docname="loa-logo.svg">
  <defs
     id="defs4">
    <filter
       inkscape:collect="always"
       id="filter3813"
       color-interpolation-filters="sRGB">
      <feGaussianBlur
         inkscape:collect="always"
         stdDeviation="2.5973371"
         id="feGaussianBlur3815" />
    </filter>
    <filter
       inkscape:collect="always"
       id="filter3804"
       color-interpolation-filters="sRGB">
      <feGaussianBlur
         inkscape:collect="always"
         stdDeviation="2.0723659"
         id="feGaussianBlur3806" />
    </filter>
  </defs>
  <sodipodi:namedview
     id="base"
     pagecolor="#ffffff"
     bordercolor="#666666"
     borderopacity="1.0"
     inkscape:pageopacity="0.0"
     inkscape:pageshadow="2"
     inkscape:zoom="1.979899"
     inkscape:cx="168.65116"
     inkscape:cy="141.53508"
     inkscape:document-units="mm"
     inkscape:current-layer="layer1"
     showgrid="false"
     units="mm"
     inkscape:window-width="1920"
     inkscape:window-height="993"
     inkscape:window-x="0"
     inkscape:window-y="27"
     inkscape:window-maximized="1" />
  <metadata
     id="metadata7">
    <rdf:RDF>
      <cc:Work
         rdf:about="">
        <dc:format>image/svg+xml</dc:format>
        <dc:type
           rdf:resource="http://purl.org/dc/dcmitype/StillImage" />
      </cc:Work>
    </rdf:RDF>
  </metadata>
  <g
     inkscape:label="Layer 1"
     inkscape:groupmode="layer"
     id="layer1"
     transform="translate(0,-733.46456)">
    <g
       id="g3031"
       style="opacity:0.45679016;fill:#000000;fill-opacity:1;stroke:none;filter:url(#filter3804)"
       transform="translate(-0.50507627,-4.0406102)">
      <path
         inkscape:transform-center-y="-23.787554"
         inkscape:transform-center-x="-70.508136"
         sodipodi:nodetypes="ccccaaac"
         inkscape:connector-curvature="0"
         id="path3022"
         d="m 318.95939,826.06285 -120.68863,38.70262 0.62739,0.82403 122.8894,-36.89035 c 0,0 14.68187,5.0223 22.0224,2.66875 7.59283,-2.43444 7.51709,-8.31669 4.27866,-11.43592 -3.87826,-3.73553 -15.43195,-7.94148 -24.85055,-5.30506 -7.86469,2.20145 -4.27867,11.43593 -4.27867,11.43593 z"
         style="fill:#000000;fill-opacity:1;stroke:none" />
      <path
         inkscape:transform-center-y="-8.5689687"
         inkscape:transform-center-x="-72.407289"
         sodipodi:nodetypes="cccczzzc"
         inkscape:connector-curvature="0"
         id="path3024"
         d="m 334.45682,861.64006 -121.71734,8.75745 1.02742,1.60042 121.92315,-6.52878 c 0,0 9.51477,10.0369 16.25432,9.51098 6.73956,-0.52592 9.12058,-6.80046 7.61006,-11.74373 -1.51052,-4.94326 -9.81845,-13.5488 -17.48754,-13.34008 -7.66909,0.20872 -7.61007,11.74374 -7.61007,11.74374 z"
         style="fill:#000000;fill-opacity:1;stroke:none" />
      <path
         inkscape:transform-center-y="-29.058487"
         inkscape:transform-center-x="-61.050691"
         sodipodi:nodetypes="cccaaacc"
         inkscape:connector-curvature="0"
         id="path3026"
         d="m 181.75649,860.69262 2.25509,0.59119 104.93341,-47.68423 c 0,0 17.02284,-1.76624 22.38937,-4.75869 6.87458,-3.83335 5.14532,-8.26484 0.10059,-9.95308 -6.04147,-2.0218 -21.47535,-2.73093 -30.84999,1.63589 -9.95995,4.63946 3.99141,11.67025 3.99141,11.67025 L 181.75652,860.6926"
         style="fill:#000000;fill-opacity:1;stroke:none" />
    </g>
    <path
       sodipodi:nodetypes="caaccsccccccccccccsccc"
       inkscape:connector-curvature="0"
       id="path3787"
       d="M 175.59136,840.33582 C 175.0681,809.0617 149.78343,790.1042 126.37639,790.2452 c -23.43696,0.14118 -49.122933,27.31167 -48.670094,50.74468 0.312264,16.15872 17.625471,31.87554 34.888344,33.66927 10.17887,0.66437 32.93742,4.14283 32.35247,13.2885 -13.69767,9.87606 -20.4432,9.96866 -41.07072,30.93559 -8.081123,8.2141 -8.759803,33.58896 13.4017,31.86502 17.14435,-2.46442 27.86565,-8.89907 41.49082,-19.12014 12.56453,-10.96716 28.69675,-22.04866 42.34557,-5.91078 29.1348,21.79543 59.47072,40.11243 88.50931,57.44442 23.37167,22.03734 48.46752,58.74454 77.99338,66.94854 18.95728,2.2449 29.08102,-25.0363 13.47397,-35.8404 -27.51953,-24.87224 -48.32143,-44.5683 -70.89834,-73.87624 43.67146,6.42639 66.34512,5.84019 107.1497,14.82846 12.61791,-0.94002 29.58672,6.08776 39.74731,-2.18661 10.12966,-17.82202 -17.95742,-32.45807 -31.82915,-34.20775 -31.56848,-4.08417 -83.34805,-2.78176 -108.73123,-13.08833 -36.33917,-7.88456 -44.70807,-10.07192 -77.1831,-25.69326 -10.38494,-5.4169 -3.86631,-15.06335 1.6206,-18.39616 25.68725,-15.6027 43.97858,-12.01032 30.83712,-33.01282 -14.82795,-10.08357 -36.52199,-2.12753 -50.75113,6.41889 -18.03498,10.55382 -39.04724,6.07983 -45.46156,5.27974 z"
       style="opacity:0.2921811;fill:#000000;stroke:#000000;stroke-width:0.99999994px;stroke-linecap:butt;stroke-linejoin:miter;stroke-opacity:1;filter:url(#filter3813)" />
    <path
       style="fill:#000000;stroke:#000000;stroke-width:0.99999994px;stroke-linecap:butt;stroke-linejoin:miter;stroke-opacity:1"
       d="m 173.09136,831.40725 c -0.52326,-31.27412 -25.80793,-50.23162 -49.21497,-50.09062 -23.43696,0.14118 -49.122933,27.31167 -48.670094,50.74468 0.312264,16.15872 17.625469,31.87554 34.888344,33.66927 10.17887,0.66437 32.93742,4.14283 32.35247,13.2885 -13.69767,9.87606 -20.4432,9.96866 -41.07072,30.93559 -8.081123,8.2141 -8.759804,33.58896 13.4017,31.86502 17.14435,-2.46442 27.86565,-8.89907 41.49082,-19.12014 12.56453,-10.96716 28.69675,-22.04866 42.34557,-5.91078 29.1348,21.79543 59.47072,40.11243 88.50931,57.44442 23.37167,22.0374 48.46752,58.74461 77.99338,66.94861 18.95728,2.2449 29.08102,-25.0363 13.47397,-35.8404 -27.51953,-24.87231 -48.32143,-44.56837 -70.89834,-73.87631 43.67146,6.42639 66.34512,5.84019 107.1497,14.82846 12.61791,-0.94002 29.58672,6.08776 39.74731,-2.18661 10.12966,-17.82202 -17.95742,-32.45807 -31.82915,-34.20775 -31.56848,-4.08417 -83.34805,-2.78176 -108.73123,-13.08833 -36.33917,-7.88456 -44.70807,-10.07192 -77.1831,-25.69326 -10.38494,-5.4169 -3.86631,-15.06335 1.6206,-18.39616 25.68725,-15.6027 43.97858,-12.01032 30.83712,-33.01282 -14.82795,-10.08357 -36.52199,-2.12753 -50.75113,6.41889 -18.03498,10.55382 -39.04724,6.07983 -45.46156,5.27974 z"
       id="path2985"
       inkscape:connector-curvature="0"
       sodipodi:nodetypes="caaccsccccccccccccsccc" />
    <g
       id="g3817"
       transform="translate(-0.50507627,-4.0406102)">
      <path
         sodipodi:nodetypes="ccccaaac"
         inkscape:connector-curvature="0"
         id="path2989"
         d="m 224.75895,780.37863 -22.5905,86.5435 1.27953,0.57533 25.85665,-85.60361 c 0,0 13.77781,-0.79758 15.15229,-6.06091 1.42172,-5.44423 -5.28759,-11.29646 -10.6066,-13.13198 -6.36994,-2.19819 -17.49978,-1.82426 -19.69797,4.54568 -1.83553,5.31901 10.6066,13.13199 10.6066,13.13199 z"
         style="fill:#ffffff;stroke:#000000;stroke-width:1.41732287;stroke-linecap:butt;stroke-linejoin:miter;stroke-miterlimit:4;stroke-opacity:1;stroke-dasharray:none" />
      <path
         sodipodi:nodetypes="cccczzzc"
         inkscape:connector-curvature="0"
         id="path2991"
         d="m 273.14792,791.75459 -60.33974,79.34954 1.80445,1.00455 62.17712,-77.24023 c 0,0 13.00998,4.51864 16.3193,0.084 3.30932,-4.43464 -0.23123,-12.0901 -4.88777,-16.15731 -4.65654,-4.06721 -15.89392,-7.85442 -19.96113,-3.19788 -4.06721,4.65654 4.88777,16.15733 4.88777,16.15733 z"
         style="fill:#ffffff;stroke:#000000;stroke-width:1.41732287;stroke-linecap:butt;stroke-linejoin:miter;stroke-miterlimit:4;stroke-opacity:1;stroke-dasharray:none" />
      <path
         inkscape:transform-center-y="-43.451075"
         inkscape:transform-center-x="3.1676528"
         sodipodi:nodetypes="cccaaacc"
         inkscape:connector-curvature="0"
         id="path2993"
         d="m 187.06656,862.21215 2.28382,0.0209 2.91282,-74.22123 c 0,0 8.67768,-6.07121 8.06547,-10.42082 -0.78425,-5.57189 -8.00369,-9.56606 -13.61536,-9.97852 -6.72043,-0.49395 -17.764,2.70005 -17.87748,9.43766 -0.12057,7.15827 18.64525,10.66085 18.64525,10.66085 l -0.41452,74.50114"
         style="fill:#ffffff;stroke:#000000;stroke-width:1.41732287;stroke-linecap:butt;stroke-linejoin:miter;stroke-miterlimit:4;stroke-opacity:1;stroke-dasharray:none" />
    </g>
    <path
       transform="matrix(0.70402356,0,0,1.3355165,40.273022,510.57165)"
       d="m 150.51273,223.4966 c 0,3.0684 -6.67085,5.55584 -14.89975,5.55584 -8.22891,0 -14.89975,-2.48744 -14.89975,-5.55584 0,-3.06841 6.67084,-5.55584 14.89975,-5.55584 8.2289,0 14.89975,2.48743 14.89975,5.55584 z"
       sodipodi:ry="5.5558391"
       sodipodi:rx="14.89975"
       sodipodi:cy="223.4966"
       sodipodi:cx="135.61298"
       id="path3773"
       style="fill:#ffffff;fill-opacity:1;fill-rule:evenodd;stroke:#000000;stroke-width:0.73083711;stroke-linecap:square;stroke-linejoin:round;stroke-miterlimit:4;stroke-opacity:1;stroke-dasharray:none;stroke-dashoffset:0"
       sodipodi:type="arc" />
    <path
       sodipodi:type="arc"
       style="fill:#ffffff;fill-opacity:1;fill-rule:evenodd;stroke:#000000;stroke-width:0.68973839;stroke-linecap:square;stroke-linejoin:round;stroke-miterlimit:4;stroke-opacity:1;stroke-dasharray:none;stroke-dashoffset:0"
       id="path3003"
       sodipodi:cx="135.61298"
       sodipodi:cy="223.4966"
       sodipodi:rx="14.89975"
       sodipodi:ry="5.5558391"
       d="m 150.51273,223.4966 c 0,3.0684 -6.67085,5.55584 -14.89975,5.55584 -8.22891,0 -14.89975,-2.48744 -14.89975,-5.55584 0,-3.06841 6.67084,-5.55584 14.89975,-5.55584 8.2289,0 14.89975,2.48743 14.89975,5.55584 z"
       transform="matrix(0.24349584,-0.65947753,1.4416242,0.43082509,-244.09969,822.09103)" />
    <g
       id="g3822"
       transform="translate(-0.50507627,-4.0406102)">
      <path
         style="fill:#ffffff;stroke:#000000;stroke-width:1.41732287;stroke-linecap:butt;stroke-linejoin:miter;stroke-miterlimit:4;stroke-opacity:1;stroke-dasharray:none"
         d="m 224.75895,780.37863 -22.5905,86.5435 1.27953,0.57533 25.85665,-85.60361 c 0,0 13.77781,-0.79758 15.15229,-6.06091 1.42172,-5.44423 -5.28759,-11.29646 -10.6066,-13.13198 -6.36994,-2.19819 -17.49978,-1.82426 -19.69797,4.54568 -1.83553,5.31901 10.6066,13.13199 10.6066,13.13199 z"
         id="path3824"
         inkscape:connector-curvature="0"
         sodipodi:nodetypes="ccccaaac" />
      <path
         style="fill:#ffffff;stroke:#000000;stroke-width:1.41732287;stroke-linecap:butt;stroke-linejoin:miter;stroke-miterlimit:4;stroke-opacity:1;stroke-dasharray:none"
         d="m 273.14792,791.75459 -60.33974,79.34954 1.80445,1.00455 62.17712,-77.24023 c 0,0 13.00998,4.51864 16.3193,0.084 3.30932,-4.43464 -0.23123,-12.0901 -4.88777,-16.15731 -4.65654,-4.06721 -15.89392,-7.85442 -19.96113,-3.19788 -4.06721,4.65654 4.88777,16.15733 4.88777,16.15733 z"
         id="path3826"
         inkscape:connector-curvature="0"
         sodipodi:nodetypes="cccczzzc" />
      <path
         style="fill:#ffffff;stroke:#000000;stroke-width:1.41732287;stroke-linecap:butt;stroke-linejoin:miter;stroke-miterlimit:4;stroke-opacity:1;stroke-dasharray:none"
         d="m 187.06656,862.21215 2.28382,0.0209 2.91282,-74.22123 c 0,0 8.67768,-6.07121 8.06547,-10.42082 -0.78425,-5.57189 -8.00369,-9.56606 -13.61536,-9.97852 -6.72043,-0.49395 -17.764,2.70005 -17.87748,9.43766 -0.12057,7.15827 18.64525,10.66085 18.64525,10.66085 l -0.41452,74.50114"
         id="path3828"
         inkscape:connector-curvature="0"
         sodipodi:nodetypes="cccaaacc"
         inkscape:transform-center-x="3.1676528"
         inkscape:transform-center-y="-43.451075" />
    </g>
    <path
       sodipodi:type="arc"
       style="fill:#000000;fill-opacity:1;fill-rule:evenodd;stroke:none"
       id="path2996"
       sodipodi:cx="110.84821"
       sodipodi:cy="244.33527"
       sodipodi:rx="1.4732143"
       sodipodi:ry="1.6517857"
       d="m 112.32143,244.33527 c 0,0.91225 -0.65958,1.65178 -1.47322,1.65178 -0.81363,0 -1.47321,-0.73953 -1.47321,-1.65178 0,-0.91226 0.65958,-1.65179 1.47321,-1.65179 0.81364,0 1.47322,0.73953 1.47322,1.65179 z"
       transform="translate(-0.50507627,587.69167)" />
    <path
       sodipodi:type="arc"
       style="fill:#000000;fill-opacity:1;fill-rule:evenodd;stroke:none"
       id="path2998"
       sodipodi:cx="133.4375"
       sodipodi:cy="222.46027"
       sodipodi:rx="2.0982144"
       sodipodi:ry="1.2946428"
       d="m 135.53571,222.46027 c 0,0.71501 -0.9394,1.29464 -2.09821,1.29464 -1.15881,0 -2.09821,-0.57963 -2.09821,-1.29464 0,-0.71502 0.9394,-1.29465 2.09821,-1.29465 1.15881,0 2.09821,0.57963 2.09821,1.29465 z"
       transform="matrix(0.78723405,0,0,1.2413793,28.332309,533.68186)" />
    <path
       sodipodi:type="arc"
       style="fill:#000000;fill-opacity:1;fill-rule:evenodd;stroke:none"
       id="path3000"
       sodipodi:cx="139.10715"
       sodipodi:cy="220.54063"
       sodipodi:rx="1.4285715"
       sodipodi:ry="1.5178572"
       d="m 140.53572,220.54063 c 0,0.83829 -0.63959,1.51786 -1.42857,1.51786 -0.78898,0 -1.42857,-0.67957 -1.42857,-1.51786 0,-0.83829 0.63959,-1.51785 1.42857,-1.51785 0.78898,0 1.42857,0.67956 1.42857,1.51785 z"
       transform="translate(-0.50507627,587.69167)" />
    <path
       transform="translate(-27.558651,605.37023)"
       sodipodi:type="arc"
       style="fill:#000000;fill-opacity:1;fill-rule:evenodd;stroke:none"
       id="path3000-6"
       sodipodi:cx="139.10715"
       sodipodi:cy="220.54063"
       sodipodi:rx="1.4285715"
       sodipodi:ry="1.5178572"
       d="m 140.53572,220.54063 c 0,0.83829 -0.63959,1.51786 -1.42857,1.51786 -0.78898,0 -1.42857,-0.67957 -1.42857,-1.51786 0,-0.83829 0.63959,-1.51785 1.42857,-1.51785 0.78898,0 1.42857,0.67956 1.42857,1.51785 z" />
  </g>
</svg>
